<?xml version="1.0" encoding="UTF-8" standalone="no"?>
<svg
   xmlns:dc="http://purl.org/dc/elements/1.1/"
   xmlns:cc="http://creativecommons.org/ns#"
   xmlns:rdf="http://www.w3.org/1999/02/22-rdf-syntax-ns#"
   xmlns:svg="http://www.w3.org/2000/svg"
   xmlns="http://www.w3.org/2000/svg"
   xmlns:sodipodi="http://sodipodi.sourceforge.net/DTD/sodipodi-0.dtd"
   xmlns:inkscape="http://www.inkscape.org/namespaces/inkscape"
   version="1.1"
   width="512"
   height="512"
   viewBox="0 0 512 512"
   enable-background="new 0 0 76.00 76.00"
   xml:space="preserve"
   id="svg2995"
   inkscape:version="0.48.4 r9939"
   sodipodi:docname="appbar.pokeball.svg"><metadata
   id="metadata3003"><rdf:RDF><cc:Work
       rdf:about=""><dc:format>image/svg+xml</dc:format><dc:type
         rdf:resource="http://purl.org/dc/dcmitype/StillImage" /></cc:Work></rdf:RDF></metadata><defs
   id="defs3001" /><sodipodi:namedview
   pagecolor="#ffffff"
   bordercolor="#666666"
   borderopacity="1"
   objecttolerance="10"
   gridtolerance="10"
   guidetolerance="10"
   inkscape:pageopacity="0"
   inkscape:pageshadow="2"
   inkscape:window-width="1366"
   inkscape:window-height="715"
   id="namedview2999"
   showgrid="false"
   inkscape:zoom="0.77631579"
   inkscape:cx="124.95785"
   inkscape:cy="218.10916"
   inkscape:window-x="-8"
   inkscape:window-y="-8"
   inkscape:window-maximized="1"
   inkscape:current-layer="svg2995"
   fit-margin-top="0"
   fit-margin-left="0"
   fit-margin-right="0"
   fit-margin-bottom="0" />
	<path
   d="m 255.69492,0.61016995 c 141.21626,0 255.69491,114.47865005 255.69491,255.69491005 C 511.38983,397.52135 396.91118,512 255.69492,512 114.47865,512 0,397.52135 0,256.30508 0,115.08882 114.47865,0.61016995 255.69492,0.61016995 z m 0,53.26932505 c -104.59941,0 -190.669011,79.336745 -201.316686,181.118125 l 96.908376,0 c 9.87117,-48.63048 52.86559,-85.23253 104.40831,-85.23253 51.54271,0 94.53713,36.60205 104.4083,85.23253 l 96.90838,0 C 446.36392,133.21624 360.29432,53.879495 255.69492,53.879495 z M 54.378234,277.61255 c 10.647675,101.78138 96.717276,181.11812 201.316686,181.11812 104.5994,0 190.669,-79.33674 201.31668,-181.11812 l -96.90838,0.001 c -9.87117,48.62914 -52.86559,85.23119 -104.4083,85.23119 -51.54272,0 -94.53714,-36.60205 -104.40831,-85.23119 l -96.908376,-0.001 z M 255.69492,192.38136 c -35.30474,0 -63.92373,28.62033 -63.92373,63.92372 0,35.30474 28.61899,63.92373 63.92373,63.92373 35.30339,0 63.92372,-28.61899 63.92372,-63.92373 0,-35.30339 -28.62033,-63.92372 -63.92372,-63.92372 z m 0,31.96186 c 17.65236,0 31.96186,14.3095 31.96186,31.96186 0,17.65237 -14.3095,31.96187 -31.96186,31.96187 -17.65237,0 -31.96187,-14.3095 -31.96187,-31.96187 0,-17.65236 14.3095,-31.96186 31.96187,-31.96186 z"
   id="path2997"
   inkscape:connector-curvature="0"
   style="fill:#000000;fill-opacity:1;stroke-width:0.2;stroke-linejoin:round" />
<path
   style="fill:#cccccc;fill-opacity:1;stroke:#cccccc;stroke-width:1.34576273;stroke-miterlimit:4;stroke-dasharray:none"
   d="m 242.58523,318.42509 c -22.83268,-5.08766 -41.49854,-22.56387 -47.92972,-44.87493 -2.21458,-7.68283 -2.81545,-22.04003 -1.23355,-29.47436 5.37824,-25.27537 25.69499,-45.50663 50.31245,-50.10072 7.64392,-1.42651 20.01094,-1.08415 27.19715,0.75282 16.97166,4.33847 32.0108,16.03496 40.508,31.5045 12.43229,22.63358 9.40731,51.38761 -7.47292,71.0342 -7.98454,9.2931 -19.56315,16.77211 -31.11979,20.10132 -7.71977,2.22394 -22.67984,2.7465 -30.26162,1.05717 z m 24.13267,-31.77393 c 17.87186,-6.38114 26.08855,-27.05582 17.75257,-44.66862 -5.76627,-12.18346 -20.19015,-19.69861 -33.55651,-17.48368 -23.74625,3.93487 -35.00092,30.06467 -21.63863,50.23806 7.59829,11.47135 24.03484,16.70145 37.44257,11.91424 z"
   id="path3007"
   inkscape:connector-curvature="0" /><path
   style="fill:#8b0000;fill-opacity:1;stroke:#8b0000;stroke-width:13.4576273"
   d="M 55.312987,230.59314 C 59.482645,196.67643 74.44976,160.51618 95.524875,133.442 129.99137,89.164653 178.01094,62.042421 233.31137,55.617952 c 13.0048,-1.510821 40.04224,-1.070824 52.25302,0.850252 71.13976,11.19244 130.281,57.854946 157.32545,124.129986 6.01004,14.72823 11.30411,34.82686 13.16883,49.99489 l 0.49517,4.02793 -48.07312,-0.19715 -48.07313,-0.19716 -1.65684,-6.12894 c -10.4101,-38.50846 -41.06342,-67.43697 -80.90978,-76.35709 -6.78865,-1.5197 -10.101,-1.78684 -22.15517,-1.78684 -12.05417,0 -15.36654,0.26714 -22.15517,1.78684 -40.26545,9.01398 -70.82204,38.17956 -81.20282,77.50624 l -1.31441,4.97979 -48.09779,0.19716 -48.097785,0.19715 0.49524,-4.02793 0,0 z"
   id="path3781"
   inkscape:connector-curvature="0" /><path
   style="fill:#ffffff;fill-opacity:1;stroke:#ffffff;stroke-width:13.4576273;stroke-opacity:1"
   d="M 242.64918,457.87087 C 171.54569,453.13304 107.76833,411.03779 75.804378,347.74751 69.574963,335.41299 65.997939,326.55652 62.245347,314.17638 59.478365,305.0478 56.245399,290.1601 55.306877,282.22495 l -0.521752,-4.41094 48.087615,0.19715 48.0876,0.19716 1.73962,6.55346 c 9.96992,37.55842 40.79674,66.81765 80.0023,75.93405 8.38147,1.94893 28.65846,2.73486 37.66583,1.45988 36.77658,-5.20554 67.80209,-28.60862 83.02565,-62.62769 1.85324,-4.14131 4.1903,-10.6324 5.19349,-14.42469 l 1.82398,-6.89501 48.08761,-0.19716 48.0876,-0.19715 -0.52169,4.41094 c -0.28692,2.426 -1.35501,8.5937 -2.37356,13.70592 -14.49559,72.75697 -68.6452,132.24716 -140.00897,153.81765 -21.8913,6.61691 -48.30278,9.637 -71.03305,8.12235 l 0,0 z"
   id="path3783"
   inkscape:connector-curvature="0" /></svg>